<mxfile host="Electron" modified="2025-03-03T17:52:31.191Z" agent="Mozilla/5.0 (Windows NT 10.0; Win64; x64) AppleWebKit/537.36 (KHTML, like Gecko) draw.io/24.6.4 Chrome/124.0.6367.207 Electron/30.0.6 Safari/537.36" etag="-Lsyyz4vq1Az1TSBz6c_" version="24.6.4" type="device" pages="3">
  <diagram name="entity-relation" id="jTwsFQjHSNGOv7V3bHkQ">
    <mxGraphModel dx="2076" dy="1064" grid="0" gridSize="10" guides="1" tooltips="1" connect="1" arrows="1" fold="1" page="0" pageScale="1" pageWidth="850" pageHeight="1100" math="0" shadow="0">
      <root>
        <mxCell id="0" />
        <mxCell id="1" parent="0" />
        <mxCell id="bzevvzoSuc9ApRX-USMG-5" value="Performance" style="swimlane;whiteSpace=wrap;html=1;" parent="1" vertex="1">
          <mxGeometry x="77" y="228" width="160" height="200" as="geometry" />
        </mxCell>
        <mxCell id="bzevvzoSuc9ApRX-USMG-6" value="&lt;div&gt;&lt;span style=&quot;background-color: initial;&quot;&gt;*id&lt;/span&gt;&lt;/div&gt;&lt;div&gt;&lt;span style=&quot;background-color: initial;&quot;&gt;genre&lt;/span&gt;&lt;br&gt;&lt;/div&gt;&lt;div&gt;piece&lt;/div&gt;&lt;div&gt;description&lt;/div&gt;&lt;div&gt;performerList&lt;/div&gt;&lt;div&gt;performerDescription&lt;/div&gt;&lt;div&gt;remarks&lt;/div&gt;&lt;div&gt;&lt;br&gt;&lt;/div&gt;&lt;div&gt;updatedAt&lt;br&gt;&lt;/div&gt;" style="text;html=1;align=left;verticalAlign=top;resizable=0;points=[];autosize=1;strokeColor=none;fillColor=none;fontSize=12;" parent="bzevvzoSuc9ApRX-USMG-5" vertex="1">
          <mxGeometry x="10" y="31" width="130" height="142" as="geometry" />
        </mxCell>
        <mxCell id="bzevvzoSuc9ApRX-USMG-10" value="Applicant" style="swimlane;whiteSpace=wrap;html=1;" parent="1" vertex="1">
          <mxGeometry x="363" y="14" width="160" height="200" as="geometry" />
        </mxCell>
        <mxCell id="bzevvzoSuc9ApRX-USMG-11" value="&lt;div&gt;*id&lt;/div&gt;&lt;div&gt;name&lt;/div&gt;&lt;div&gt;phone&lt;/div&gt;&lt;div&gt;email&lt;/div&gt;&lt;div&gt;performanceRemarks&lt;/div&gt;&lt;div&gt;&lt;br&gt;&lt;/div&gt;&lt;div&gt;updatedAt&lt;/div&gt;" style="text;html=1;align=left;verticalAlign=top;resizable=0;points=[];autosize=1;strokeColor=none;fillColor=none;fontSize=12;" parent="bzevvzoSuc9ApRX-USMG-10" vertex="1">
          <mxGeometry x="10" y="31" width="133" height="113" as="geometry" />
        </mxCell>
        <mxCell id="bzevvzoSuc9ApRX-USMG-14" value="Preference" style="swimlane;whiteSpace=wrap;html=1;" parent="1" vertex="1">
          <mxGeometry x="363" y="228" width="160" height="200" as="geometry" />
        </mxCell>
        <mxCell id="bzevvzoSuc9ApRX-USMG-15" value="&lt;div&gt;*id&lt;/div&gt;&lt;div&gt;performDuration&lt;/div&gt;&lt;div&gt;concertAvailability&lt;/div&gt;&lt;div&gt;rehearsalAvailability&lt;/div&gt;&lt;div&gt;remarks&lt;/div&gt;&lt;div&gt;&lt;br&gt;&lt;/div&gt;&lt;div&gt;updatedAt&lt;br&gt;&lt;/div&gt;" style="text;html=1;align=left;verticalAlign=top;resizable=0;points=[];autosize=1;strokeColor=none;fillColor=none;fontSize=12;" parent="bzevvzoSuc9ApRX-USMG-14" vertex="1">
          <mxGeometry x="10" y="31" width="125" height="113" as="geometry" />
        </mxCell>
        <mxCell id="bzevvzoSuc9ApRX-USMG-16" value="StageRequirement" style="swimlane;whiteSpace=wrap;html=1;" parent="1" vertex="1">
          <mxGeometry x="363" y="444" width="160" height="200" as="geometry" />
        </mxCell>
        <mxCell id="bzevvzoSuc9ApRX-USMG-17" value="&lt;div&gt;*id&lt;/div&gt;&lt;div&gt;chair&lt;span style=&quot;background-color: initial;&quot;&gt;Count&lt;/span&gt;&lt;/div&gt;&lt;div&gt;stand&lt;span style=&quot;background-color: initial;&quot;&gt;Count&lt;/span&gt;&lt;/div&gt;&lt;div&gt;microphoneCount&lt;/div&gt;&lt;div&gt;otherEquipment&lt;/div&gt;&lt;div&gt;selfProvidedEquipment&lt;/div&gt;&lt;div&gt;&lt;br&gt;&lt;/div&gt;&lt;div&gt;updatedAt&lt;br&gt;&lt;/div&gt;" style="text;html=1;align=left;verticalAlign=top;resizable=0;points=[];autosize=1;strokeColor=none;fillColor=none;fontSize=12;" parent="bzevvzoSuc9ApRX-USMG-16" vertex="1">
          <mxGeometry x="10" y="31" width="141" height="127" as="geometry" />
        </mxCell>
        <mxCell id="bzevvzoSuc9ApRX-USMG-22" value="ConcertSlot" style="swimlane;whiteSpace=wrap;html=1;" parent="1" vertex="1">
          <mxGeometry x="-212" y="334" width="160" height="201" as="geometry" />
        </mxCell>
        <mxCell id="bzevvzoSuc9ApRX-USMG-23" value="&lt;div&gt;*id&lt;/div&gt;&lt;div&gt;order&lt;br&gt;&lt;/div&gt;&lt;div&gt;name&lt;br&gt;&lt;/div&gt;&lt;div&gt;startTime&lt;/div&gt;&lt;div&gt;eventDuration&lt;/div&gt;&lt;div&gt;bufferDuration&lt;/div&gt;&lt;div&gt;remark&lt;/div&gt;&lt;div&gt;&lt;br&gt;&lt;/div&gt;&lt;div&gt;&lt;div&gt;updatedAt&lt;/div&gt;&lt;/div&gt;" style="text;html=1;align=left;verticalAlign=top;resizable=0;points=[];autosize=1;strokeColor=none;fillColor=none;fontSize=12;" parent="bzevvzoSuc9ApRX-USMG-22" vertex="1">
          <mxGeometry x="10" y="31" width="94" height="142" as="geometry" />
        </mxCell>
        <mxCell id="bzevvzoSuc9ApRX-USMG-24" value="RehearsalSlot" style="swimlane;whiteSpace=wrap;html=1;" parent="1" vertex="1">
          <mxGeometry x="-212" y="122" width="160" height="200" as="geometry" />
        </mxCell>
        <mxCell id="bzevvzoSuc9ApRX-USMG-25" value="&lt;div&gt;*id&lt;/div&gt;&lt;div&gt;order&lt;br&gt;&lt;/div&gt;&lt;div&gt;name&lt;br&gt;&lt;/div&gt;&lt;div&gt;startTime&lt;/div&gt;&lt;div&gt;eventDuration&lt;/div&gt;&lt;div&gt;bufferDuration&lt;/div&gt;&lt;div&gt;remark&lt;/div&gt;&lt;div&gt;&lt;br&gt;&lt;/div&gt;&lt;div&gt;updatedAt&lt;br&gt;&lt;/div&gt;" style="text;html=1;align=left;verticalAlign=top;resizable=0;points=[];autosize=1;strokeColor=none;fillColor=none;fontSize=12;" parent="bzevvzoSuc9ApRX-USMG-24" vertex="1">
          <mxGeometry x="10" y="31" width="94" height="142" as="geometry" />
        </mxCell>
        <mxCell id="WHdaE3q1WI7U0-ryn0Bs-1" value="&lt;span style=&quot;text-wrap: nowrap;&quot;&gt;&lt;b&gt;ER Diagram&lt;/b&gt;&lt;/span&gt;&lt;div style=&quot;text-wrap: nowrap;&quot;&gt;- Remember to edit this diagram should&amp;nbsp;the model be modified in the future&lt;div&gt;&lt;span style=&quot;background-color: initial;&quot;&gt;-&amp;nbsp;&lt;/span&gt;&lt;span style=&quot;background-color: initial;&quot;&gt;Crow&#39;s foot notation: https://vertabelo.com/blog/crow-s-foot-notation/&lt;/span&gt;&lt;br&gt;&lt;/div&gt;&lt;/div&gt;" style="rounded=0;whiteSpace=wrap;html=1;fillColor=#f5f5f5;fontColor=#333333;strokeColor=#666666;align=left;spacingLeft=0;spacingBottom=0;spacingTop=0;spacing=24;spacingRight=0;" parent="1" vertex="1">
          <mxGeometry x="-212" y="-73" width="470" height="87" as="geometry" />
        </mxCell>
        <mxCell id="WHdaE3q1WI7U0-ryn0Bs-5" value="" style="edgeStyle=entityRelationEdgeStyle;fontSize=12;html=1;endArrow=ERmandOne;startArrow=ERmandOne;rounded=0;startSize=8;endSize=8;curved=1;exitX=1;exitY=0.75;exitDx=0;exitDy=0;" parent="1" source="bzevvzoSuc9ApRX-USMG-5" target="bzevvzoSuc9ApRX-USMG-16" edge="1">
          <mxGeometry width="100" height="100" relative="1" as="geometry">
            <mxPoint x="238" y="385" as="sourcePoint" />
            <mxPoint x="362" y="175" as="targetPoint" />
          </mxGeometry>
        </mxCell>
        <mxCell id="WHdaE3q1WI7U0-ryn0Bs-6" value="" style="edgeStyle=entityRelationEdgeStyle;fontSize=12;html=1;endArrow=ERmandOne;startArrow=ERmandOne;rounded=0;startSize=8;endSize=8;curved=1;" parent="1" source="bzevvzoSuc9ApRX-USMG-5" target="bzevvzoSuc9ApRX-USMG-14" edge="1">
          <mxGeometry width="100" height="100" relative="1" as="geometry">
            <mxPoint x="262" y="275" as="sourcePoint" />
            <mxPoint x="362" y="175" as="targetPoint" />
          </mxGeometry>
        </mxCell>
        <mxCell id="WHdaE3q1WI7U0-ryn0Bs-7" value="" style="edgeStyle=entityRelationEdgeStyle;fontSize=12;html=1;endArrow=ERmandOne;startArrow=ERmandOne;rounded=0;startSize=8;endSize=8;curved=1;exitX=1;exitY=0.25;exitDx=0;exitDy=0;" parent="1" source="bzevvzoSuc9ApRX-USMG-5" target="bzevvzoSuc9ApRX-USMG-10" edge="1">
          <mxGeometry width="100" height="100" relative="1" as="geometry">
            <mxPoint x="262" y="275" as="sourcePoint" />
            <mxPoint x="362" y="175" as="targetPoint" />
          </mxGeometry>
        </mxCell>
        <mxCell id="WHdaE3q1WI7U0-ryn0Bs-13" value="" style="edgeStyle=entityRelationEdgeStyle;fontSize=12;html=1;endArrow=ERzeroToOne;startArrow=ERmandOne;rounded=0;startSize=8;endSize=8;curved=1;entryX=0;entryY=0.5;entryDx=0;entryDy=0;exitX=1;exitY=0.75;exitDx=0;exitDy=0;" parent="1" source="bzevvzoSuc9ApRX-USMG-24" target="bzevvzoSuc9ApRX-USMG-5" edge="1">
          <mxGeometry width="100" height="100" relative="1" as="geometry">
            <mxPoint x="-26" y="267" as="sourcePoint" />
            <mxPoint x="60" y="320" as="targetPoint" />
          </mxGeometry>
        </mxCell>
        <mxCell id="WHdaE3q1WI7U0-ryn0Bs-14" value="" style="edgeStyle=entityRelationEdgeStyle;fontSize=12;html=1;endArrow=ERzeroToOne;startArrow=ERmandOne;rounded=0;startSize=8;endSize=8;curved=1;entryX=0;entryY=0.75;entryDx=0;entryDy=0;exitX=1;exitY=0.25;exitDx=0;exitDy=0;" parent="1" source="bzevvzoSuc9ApRX-USMG-22" target="bzevvzoSuc9ApRX-USMG-5" edge="1">
          <mxGeometry width="100" height="100" relative="1" as="geometry">
            <mxPoint x="7" y="342" as="sourcePoint" />
            <mxPoint x="87" y="338" as="targetPoint" />
          </mxGeometry>
        </mxCell>
        <mxCell id="fOchFG8gb-2TE_KnR1Nx-4" value="&lt;div&gt;EventDuration and BufferDuration default to 0.&lt;/div&gt;&lt;div&gt;Other fields are optional.&lt;/div&gt;" style="shape=note;whiteSpace=wrap;html=1;backgroundOutline=1;darkOpacity=0.05;" parent="1" vertex="1">
          <mxGeometry x="-431" y="222" width="182" height="100" as="geometry" />
        </mxCell>
      </root>
    </mxGraphModel>
  </diagram>
  <diagram id="XbVBtYMFF4jDHdzr81SA" name="usecase">
    <mxGraphModel dx="1690" dy="1479" grid="0" gridSize="10" guides="1" tooltips="1" connect="1" arrows="1" fold="1" page="0" pageScale="1" pageWidth="850" pageHeight="1100" math="0" shadow="0">
      <root>
        <mxCell id="0" />
        <mxCell id="1" parent="0" />
        <mxCell id="eJMcDf04O3gBODqJVGox-1" value="" style="rounded=1;whiteSpace=wrap;html=1;fontFamily=Helvetica;fontSize=12;labelBackgroundColor=default;" parent="1" vertex="1">
          <mxGeometry x="-105" y="-293" width="991" height="136" as="geometry" />
        </mxCell>
        <mxCell id="eJMcDf04O3gBODqJVGox-2" style="edgeStyle=none;curved=1;rounded=0;orthogonalLoop=1;jettySize=auto;html=1;fontSize=12;startSize=8;endSize=8;endArrow=none;endFill=0;" parent="1" source="eJMcDf04O3gBODqJVGox-3" target="eJMcDf04O3gBODqJVGox-10" edge="1">
          <mxGeometry relative="1" as="geometry" />
        </mxCell>
        <mxCell id="99JS4t9zf1MzUjKD7jDg-5" style="edgeStyle=none;curved=1;rounded=0;orthogonalLoop=1;jettySize=auto;html=1;fontSize=12;startSize=8;endSize=8;endArrow=none;endFill=0;" parent="1" source="eJMcDf04O3gBODqJVGox-3" target="99JS4t9zf1MzUjKD7jDg-3" edge="1">
          <mxGeometry relative="1" as="geometry" />
        </mxCell>
        <mxCell id="eJMcDf04O3gBODqJVGox-3" value="Liaison Officer" style="shape=umlActor;verticalLabelPosition=bottom;verticalAlign=top;html=1;outlineConnect=0;" parent="1" vertex="1">
          <mxGeometry x="27" y="-104" width="30" height="60" as="geometry" />
        </mxCell>
        <mxCell id="eJMcDf04O3gBODqJVGox-4" style="edgeStyle=none;shape=connector;curved=1;rounded=0;orthogonalLoop=1;jettySize=auto;html=1;strokeColor=default;align=center;verticalAlign=middle;fontFamily=Helvetica;fontSize=12;fontColor=default;labelBackgroundColor=default;startSize=8;endArrow=none;endFill=0;endSize=8;" parent="1" source="eJMcDf04O3gBODqJVGox-6" target="eJMcDf04O3gBODqJVGox-12" edge="1">
          <mxGeometry relative="1" as="geometry" />
        </mxCell>
        <mxCell id="eJMcDf04O3gBODqJVGox-5" style="edgeStyle=none;shape=connector;curved=1;rounded=0;orthogonalLoop=1;jettySize=auto;html=1;strokeColor=default;align=center;verticalAlign=middle;fontFamily=Helvetica;fontSize=12;fontColor=default;labelBackgroundColor=default;startSize=8;endArrow=none;endFill=0;endSize=8;" parent="1" source="eJMcDf04O3gBODqJVGox-6" target="eJMcDf04O3gBODqJVGox-22" edge="1">
          <mxGeometry relative="1" as="geometry" />
        </mxCell>
        <mxCell id="eJMcDf04O3gBODqJVGox-6" value="&lt;div&gt;Rundown&lt;/div&gt;&lt;div&gt;Scheduler&lt;/div&gt;" style="shape=umlActor;verticalLabelPosition=bottom;verticalAlign=top;html=1;outlineConnect=0;" parent="1" vertex="1">
          <mxGeometry x="276" y="-104" width="30" height="60" as="geometry" />
        </mxCell>
        <mxCell id="eJMcDf04O3gBODqJVGox-7" style="edgeStyle=none;shape=connector;curved=1;rounded=0;orthogonalLoop=1;jettySize=auto;html=1;strokeColor=default;align=center;verticalAlign=middle;fontFamily=Helvetica;fontSize=12;fontColor=default;labelBackgroundColor=default;startSize=8;endArrow=none;endFill=0;endSize=8;" parent="1" source="eJMcDf04O3gBODqJVGox-9" target="eJMcDf04O3gBODqJVGox-13" edge="1">
          <mxGeometry relative="1" as="geometry" />
        </mxCell>
        <mxCell id="eJMcDf04O3gBODqJVGox-8" style="edgeStyle=none;shape=connector;curved=1;rounded=0;orthogonalLoop=1;jettySize=auto;html=1;strokeColor=default;align=center;verticalAlign=middle;fontFamily=Helvetica;fontSize=12;fontColor=default;labelBackgroundColor=default;startSize=8;endArrow=none;endFill=0;endSize=8;" parent="1" source="99JS4t9zf1MzUjKD7jDg-1" target="eJMcDf04O3gBODqJVGox-28" edge="1">
          <mxGeometry relative="1" as="geometry" />
        </mxCell>
        <mxCell id="eJMcDf04O3gBODqJVGox-9" value="Stage&lt;div&gt;Helper&lt;/div&gt;" style="shape=umlActor;verticalLabelPosition=bottom;verticalAlign=top;html=1;outlineConnect=0;" parent="1" vertex="1">
          <mxGeometry x="557" y="-104" width="30" height="60" as="geometry" />
        </mxCell>
        <mxCell id="eJMcDf04O3gBODqJVGox-10" value="Save Performance Data" style="ellipse;whiteSpace=wrap;html=1;" parent="1" vertex="1">
          <mxGeometry x="52" y="-265" width="80" height="80" as="geometry" />
        </mxCell>
        <mxCell id="eJMcDf04O3gBODqJVGox-11" value="" style="edgeStyle=none;shape=connector;curved=1;rounded=0;orthogonalLoop=1;jettySize=auto;html=1;strokeColor=default;align=center;verticalAlign=middle;fontFamily=Helvetica;fontSize=12;fontColor=default;labelBackgroundColor=default;startSize=8;endArrow=none;endFill=0;endSize=8;" parent="1" source="eJMcDf04O3gBODqJVGox-12" target="eJMcDf04O3gBODqJVGox-20" edge="1">
          <mxGeometry relative="1" as="geometry" />
        </mxCell>
        <mxCell id="eJMcDf04O3gBODqJVGox-12" value="Get Rundown Edit Form" style="ellipse;whiteSpace=wrap;html=1;fillColor=#e1d5e7;strokeColor=#9673a6;" parent="1" vertex="1">
          <mxGeometry x="251" y="-265" width="80" height="80" as="geometry" />
        </mxCell>
        <mxCell id="eJMcDf04O3gBODqJVGox-13" value="Get Stage Requirement View" style="ellipse;whiteSpace=wrap;html=1;fillColor=#e1d5e7;strokeColor=#9673a6;" parent="1" vertex="1">
          <mxGeometry x="532" y="-265" width="80" height="80" as="geometry" />
        </mxCell>
        <mxCell id="eJMcDf04O3gBODqJVGox-14" style="edgeStyle=none;shape=connector;curved=1;rounded=0;orthogonalLoop=1;jettySize=auto;html=1;strokeColor=default;align=center;verticalAlign=middle;fontFamily=Helvetica;fontSize=12;fontColor=default;labelBackgroundColor=default;startSize=8;endArrow=none;endFill=0;endSize=8;" parent="1" source="eJMcDf04O3gBODqJVGox-15" target="eJMcDf04O3gBODqJVGox-18" edge="1">
          <mxGeometry relative="1" as="geometry" />
        </mxCell>
        <mxCell id="eJMcDf04O3gBODqJVGox-15" value="&lt;div&gt;Emcee&lt;/div&gt;" style="shape=umlActor;verticalLabelPosition=bottom;verticalAlign=top;html=1;outlineConnect=0;" parent="1" vertex="1">
          <mxGeometry x="761" y="-104" width="30" height="60" as="geometry" />
        </mxCell>
        <mxCell id="eJMcDf04O3gBODqJVGox-16" style="edgeStyle=none;shape=connector;curved=1;rounded=0;orthogonalLoop=1;jettySize=auto;html=1;strokeColor=default;align=center;verticalAlign=middle;fontFamily=Helvetica;fontSize=12;fontColor=default;labelBackgroundColor=default;startSize=8;endArrow=none;endFill=0;endSize=8;" parent="1" source="eJMcDf04O3gBODqJVGox-18" target="eJMcDf04O3gBODqJVGox-19" edge="1">
          <mxGeometry relative="1" as="geometry" />
        </mxCell>
        <mxCell id="eJMcDf04O3gBODqJVGox-17" style="edgeStyle=none;shape=connector;curved=1;rounded=0;orthogonalLoop=1;jettySize=auto;html=1;strokeColor=default;align=center;verticalAlign=middle;fontFamily=Helvetica;fontSize=12;fontColor=default;labelBackgroundColor=default;startSize=8;endArrow=none;endFill=0;endSize=8;" parent="1" source="eJMcDf04O3gBODqJVGox-18" target="eJMcDf04O3gBODqJVGox-20" edge="1">
          <mxGeometry relative="1" as="geometry" />
        </mxCell>
        <mxCell id="eJMcDf04O3gBODqJVGox-18" value="Get Performance Detail View" style="ellipse;whiteSpace=wrap;html=1;fillColor=#e1d5e7;strokeColor=#9673a6;" parent="1" vertex="1">
          <mxGeometry x="736" y="-265" width="80" height="80" as="geometry" />
        </mxCell>
        <mxCell id="eJMcDf04O3gBODqJVGox-19" value="Perform&lt;div&gt;Data&lt;/div&gt;" style="shape=cylinder3;whiteSpace=wrap;html=1;boundedLbl=1;backgroundOutline=1;size=15;fontFamily=Helvetica;fontSize=12;fontColor=default;labelBackgroundColor=default;" parent="1" vertex="1">
          <mxGeometry x="280.5" y="-449" width="60" height="80" as="geometry" />
        </mxCell>
        <mxCell id="eJMcDf04O3gBODqJVGox-20" value="Rundown&lt;div&gt;Data&lt;/div&gt;" style="shape=cylinder3;whiteSpace=wrap;html=1;boundedLbl=1;backgroundOutline=1;size=15;fontFamily=Helvetica;fontSize=12;fontColor=default;labelBackgroundColor=default;" parent="1" vertex="1">
          <mxGeometry x="440.5" y="-449" width="60" height="80" as="geometry" />
        </mxCell>
        <mxCell id="eJMcDf04O3gBODqJVGox-21" value="write" style="edgeStyle=none;shape=connector;curved=1;rounded=0;orthogonalLoop=1;jettySize=auto;html=1;strokeColor=default;align=center;verticalAlign=middle;fontFamily=Helvetica;fontSize=12;fontColor=default;labelBackgroundColor=default;startSize=8;endArrow=classic;endFill=1;endSize=8;" parent="1" source="eJMcDf04O3gBODqJVGox-10" target="eJMcDf04O3gBODqJVGox-19" edge="1">
          <mxGeometry relative="1" as="geometry" />
        </mxCell>
        <mxCell id="eJMcDf04O3gBODqJVGox-22" value="Get Preference View" style="ellipse;whiteSpace=wrap;html=1;fillColor=#e1d5e7;strokeColor=#9673a6;" parent="1" vertex="1">
          <mxGeometry x="161" y="-265" width="80" height="80" as="geometry" />
        </mxCell>
        <mxCell id="eJMcDf04O3gBODqJVGox-23" value="" style="edgeStyle=none;shape=connector;curved=1;rounded=0;orthogonalLoop=1;jettySize=auto;html=1;strokeColor=default;align=center;verticalAlign=middle;fontFamily=Helvetica;fontSize=12;fontColor=default;labelBackgroundColor=default;startSize=8;endArrow=none;endFill=0;endSize=8;" parent="1" source="eJMcDf04O3gBODqJVGox-22" target="eJMcDf04O3gBODqJVGox-19" edge="1">
          <mxGeometry relative="1" as="geometry" />
        </mxCell>
        <mxCell id="eJMcDf04O3gBODqJVGox-24" style="edgeStyle=none;shape=connector;curved=1;rounded=0;orthogonalLoop=1;jettySize=auto;html=1;strokeColor=default;align=center;verticalAlign=middle;fontFamily=Helvetica;fontSize=12;fontColor=default;labelBackgroundColor=default;startSize=8;endArrow=none;endFill=0;endSize=8;" parent="1" source="eJMcDf04O3gBODqJVGox-13" target="eJMcDf04O3gBODqJVGox-19" edge="1">
          <mxGeometry relative="1" as="geometry" />
        </mxCell>
        <mxCell id="eJMcDf04O3gBODqJVGox-25" style="edgeStyle=none;shape=connector;curved=1;rounded=0;orthogonalLoop=1;jettySize=auto;html=1;strokeColor=default;align=center;verticalAlign=middle;fontFamily=Helvetica;fontSize=12;fontColor=default;labelBackgroundColor=default;startSize=8;endArrow=none;endFill=0;endSize=8;" parent="1" source="eJMcDf04O3gBODqJVGox-13" target="eJMcDf04O3gBODqJVGox-20" edge="1">
          <mxGeometry relative="1" as="geometry" />
        </mxCell>
        <mxCell id="eJMcDf04O3gBODqJVGox-26" style="edgeStyle=none;shape=connector;curved=1;rounded=0;orthogonalLoop=1;jettySize=auto;html=1;strokeColor=default;align=center;verticalAlign=middle;fontFamily=Helvetica;fontSize=12;fontColor=default;labelBackgroundColor=default;startSize=8;endArrow=none;endFill=0;endSize=8;" parent="1" source="eJMcDf04O3gBODqJVGox-28" target="eJMcDf04O3gBODqJVGox-20" edge="1">
          <mxGeometry relative="1" as="geometry" />
        </mxCell>
        <mxCell id="eJMcDf04O3gBODqJVGox-27" style="edgeStyle=none;shape=connector;curved=1;rounded=0;orthogonalLoop=1;jettySize=auto;html=1;strokeColor=default;align=center;verticalAlign=middle;fontFamily=Helvetica;fontSize=12;fontColor=default;labelBackgroundColor=default;startSize=8;endArrow=none;endFill=0;endSize=8;" parent="1" source="eJMcDf04O3gBODqJVGox-28" target="eJMcDf04O3gBODqJVGox-19" edge="1">
          <mxGeometry relative="1" as="geometry" />
        </mxCell>
        <mxCell id="eJMcDf04O3gBODqJVGox-28" value="Get Applicant Detail View" style="ellipse;whiteSpace=wrap;html=1;fillColor=#e1d5e7;strokeColor=#9673a6;" parent="1" vertex="1">
          <mxGeometry x="635" y="-265" width="80" height="80" as="geometry" />
        </mxCell>
        <mxCell id="99JS4t9zf1MzUjKD7jDg-1" value="General&lt;div&gt;Helper&lt;/div&gt;" style="shape=umlActor;verticalLabelPosition=bottom;verticalAlign=top;html=1;outlineConnect=0;" parent="1" vertex="1">
          <mxGeometry x="660" y="-104" width="30" height="60" as="geometry" />
        </mxCell>
        <mxCell id="99JS4t9zf1MzUjKD7jDg-4" style="edgeStyle=none;curved=1;rounded=0;orthogonalLoop=1;jettySize=auto;html=1;fontSize=12;startSize=8;endSize=8;endArrow=none;endFill=0;" parent="1" source="99JS4t9zf1MzUjKD7jDg-3" target="eJMcDf04O3gBODqJVGox-19" edge="1">
          <mxGeometry relative="1" as="geometry" />
        </mxCell>
        <mxCell id="99JS4t9zf1MzUjKD7jDg-3" value="Get Performance Edit Form" style="ellipse;whiteSpace=wrap;html=1;fillColor=#e1d5e7;strokeColor=#9673a6;" parent="1" vertex="1">
          <mxGeometry x="-41" y="-265" width="80" height="80" as="geometry" />
        </mxCell>
        <mxCell id="99JS4t9zf1MzUjKD7jDg-7" value="Save&amp;nbsp; Rundown" style="ellipse;whiteSpace=wrap;html=1;" parent="1" vertex="1">
          <mxGeometry x="341" y="-265" width="80" height="80" as="geometry" />
        </mxCell>
        <mxCell id="99JS4t9zf1MzUjKD7jDg-8" style="edgeStyle=none;shape=connector;curved=1;rounded=0;orthogonalLoop=1;jettySize=auto;html=1;strokeColor=default;align=center;verticalAlign=middle;fontFamily=Helvetica;fontSize=12;fontColor=default;labelBackgroundColor=default;startSize=8;endArrow=none;endFill=0;endSize=8;" parent="1" source="eJMcDf04O3gBODqJVGox-6" target="99JS4t9zf1MzUjKD7jDg-7" edge="1">
          <mxGeometry relative="1" as="geometry">
            <mxPoint x="259" y="-95" as="sourcePoint" />
            <mxPoint x="288" y="-177" as="targetPoint" />
          </mxGeometry>
        </mxCell>
        <mxCell id="99JS4t9zf1MzUjKD7jDg-9" value="write" style="edgeStyle=none;shape=connector;curved=1;rounded=0;orthogonalLoop=1;jettySize=auto;html=1;strokeColor=default;align=center;verticalAlign=middle;fontFamily=Helvetica;fontSize=12;fontColor=default;labelBackgroundColor=default;startSize=8;endArrow=classic;endFill=1;endSize=8;" parent="1" source="99JS4t9zf1MzUjKD7jDg-7" target="eJMcDf04O3gBODqJVGox-20" edge="1">
          <mxGeometry relative="1" as="geometry">
            <mxPoint x="457.9170824803332" y="-266.9686673715871" as="sourcePoint" />
            <mxPoint x="442.5" y="-362" as="targetPoint" />
          </mxGeometry>
        </mxCell>
        <mxCell id="RmTyqbwsvNh_RPQrvcXQ-1" style="edgeStyle=none;shape=connector;curved=1;rounded=0;orthogonalLoop=1;jettySize=auto;html=1;strokeColor=default;align=center;verticalAlign=middle;fontFamily=Helvetica;fontSize=12;fontColor=default;labelBackgroundColor=default;startSize=8;endArrow=none;endFill=0;endSize=8;" parent="1" source="99JS4t9zf1MzUjKD7jDg-1" target="eJMcDf04O3gBODqJVGox-18" edge="1">
          <mxGeometry relative="1" as="geometry">
            <mxPoint x="685" y="-94" as="sourcePoint" />
            <mxPoint x="685" y="-175" as="targetPoint" />
          </mxGeometry>
        </mxCell>
        <mxCell id="RmTyqbwsvNh_RPQrvcXQ-2" style="edgeStyle=none;shape=connector;curved=1;rounded=0;orthogonalLoop=1;jettySize=auto;html=1;strokeColor=default;align=center;verticalAlign=middle;fontFamily=Helvetica;fontSize=12;fontColor=default;labelBackgroundColor=default;startSize=8;endArrow=none;endFill=0;endSize=8;" parent="1" source="99JS4t9zf1MzUjKD7jDg-1" target="eJMcDf04O3gBODqJVGox-13" edge="1">
          <mxGeometry relative="1" as="geometry">
            <mxPoint x="685" y="-94" as="sourcePoint" />
            <mxPoint x="685" y="-175" as="targetPoint" />
          </mxGeometry>
        </mxCell>
      </root>
    </mxGraphModel>
  </diagram>
  <diagram id="6m-s4k963OhyA-7QZEOv" name="class">
    <mxGraphModel dx="1690" dy="679" grid="0" gridSize="10" guides="1" tooltips="1" connect="1" arrows="1" fold="1" page="0" pageScale="1" pageWidth="850" pageHeight="1100" math="0" shadow="0">
      <root>
        <mxCell id="0" />
        <mxCell id="1" parent="0" />
        <mxCell id="DTqDmCVSHwlwaBRv9r3d-1" style="edgeStyle=none;curved=1;rounded=0;orthogonalLoop=1;jettySize=auto;html=1;fontSize=12;startSize=8;endSize=8;endArrow=diamondThin;endFill=0;" edge="1" parent="1" source="DTqDmCVSHwlwaBRv9r3d-2" target="DTqDmCVSHwlwaBRv9r3d-4">
          <mxGeometry relative="1" as="geometry" />
        </mxCell>
        <mxCell id="DTqDmCVSHwlwaBRv9r3d-2" value="DataColumn" style="swimlane;whiteSpace=wrap;html=1;" vertex="1" parent="1">
          <mxGeometry x="-105" y="57" width="160" height="200" as="geometry" />
        </mxCell>
        <mxCell id="DTqDmCVSHwlwaBRv9r3d-3" value="&lt;div&gt;&lt;span style=&quot;background-color: initial;&quot;&gt;+ getKey()&lt;/span&gt;&lt;br&gt;&lt;/div&gt;&lt;div&gt;&lt;span style=&quot;background-color: initial;&quot;&gt;+&amp;nbsp;&lt;/span&gt;&lt;span style=&quot;background-color: initial;&quot;&gt;&lt;i&gt;getDefault&lt;/i&gt;()&lt;/span&gt;&lt;/div&gt;&lt;div&gt;&lt;span style=&quot;background-color: initial;&quot;&gt;+ getValue()&lt;/span&gt;&lt;/div&gt;&lt;div&gt;&lt;span style=&quot;background-color: initial;&quot;&gt;+&amp;nbsp;&lt;/span&gt;extractItem()&lt;/div&gt;&lt;div&gt;&lt;span style=&quot;background-color: initial;&quot;&gt;-&amp;nbsp;&lt;/span&gt;threeWayCheck()&lt;/div&gt;" style="text;html=1;align=left;verticalAlign=top;resizable=0;points=[];autosize=1;strokeColor=none;fillColor=none;fontSize=12;" vertex="1" parent="DTqDmCVSHwlwaBRv9r3d-2">
          <mxGeometry x="10" y="31" width="118" height="84" as="geometry" />
        </mxCell>
        <mxCell id="DTqDmCVSHwlwaBRv9r3d-4" value="HotTableColumn" style="swimlane;whiteSpace=wrap;html=1;startSize=23;" vertex="1" parent="1">
          <mxGeometry x="185" y="57" width="160" height="200" as="geometry" />
        </mxCell>
        <mxCell id="DTqDmCVSHwlwaBRv9r3d-5" value="&lt;div&gt;&lt;span style=&quot;background-color: initial;&quot;&gt;- width&lt;/span&gt;&lt;/div&gt;&lt;div&gt;&lt;span style=&quot;background-color: initial;&quot;&gt;- readonly&lt;/span&gt;&lt;/div&gt;&lt;div&gt;&lt;span style=&quot;background-color: initial;&quot;&gt;+ getKey()&lt;/span&gt;&lt;br&gt;&lt;/div&gt;&lt;div&gt;+&amp;nbsp;getColumnSetting()&lt;/div&gt;" style="text;html=1;align=left;verticalAlign=top;resizable=0;points=[];autosize=1;strokeColor=none;fillColor=none;fontSize=12;" vertex="1" parent="DTqDmCVSHwlwaBRv9r3d-4">
          <mxGeometry x="10" y="31" width="132" height="70" as="geometry" />
        </mxCell>
      </root>
    </mxGraphModel>
  </diagram>
</mxfile>
